<svg width="48" height="48" viewBox="0 0 48 48" fill="none" xmlns="http://www.w3.org/2000/svg">
<path fill-rule="evenodd" clip-rule="evenodd" d="M42.2803 26.244C43.3659 24.9422 43.3663 23.0562 42.253 21.778C38.1085 17.0199 31.8066 13 24 13C16.1933 13 9.89143 17.0199 5.74698 21.778C4.63365 23.0562 4.63408 24.9422 5.7196 26.244C9.67892 30.9925 15.3393 35 24 35C32.6606 35 38.321 30.9925 42.2803 26.244ZM33 24C33 28.9706 28.9705 33 24 33C19.0294 33 15 28.9706 15 24C15 19.0294 19.0294 15 24 15C28.9705 15 33 19.0294 33 24ZM31 24C31 27.866 27.866 31 24 31C20.134 31 17 27.866 17 24C17 20.134 20.134 17 24 17C27.866 17 31 20.134 31 24Z" fill="#7A8184"/>
</svg>
