<svg width="199" height="92" viewBox="0 0 199 92" fill="none" xmlns="http://www.w3.org/2000/svg">
<g clip-path="url(#clip0_372_382)">
<path d="M21.6094 38.3906H27.4688C27.375 32.6484 22.4766 28.5938 15.2812 28.5938C8.13281 28.5938 2.8125 32.5781 2.8125 38.5781C2.8125 43.4531 6.28125 46.2656 11.8594 47.7188L15.7031 48.7031C19.3828 49.6406 21.8203 50.7656 21.8438 53.4375C21.8203 56.3438 19.0547 58.2891 15.0469 58.3125C11.1797 58.2891 8.20312 56.5547 7.92188 53.0156H1.92188C2.17969 59.7188 7.19531 63.5156 15.0938 63.5156C23.2266 63.5156 27.9375 59.4375 27.9375 53.4844C27.9375 47.5781 23.0625 44.9062 18 43.7344L14.8125 42.8906C12 42.2344 8.97656 41.0625 9 38.2031C9.02344 35.6484 11.3203 33.7734 15.1875 33.7969C18.8438 33.7734 21.3047 35.4609 21.6094 38.3906ZM43.8281 63.5156C51.2812 63.5156 56.0391 58.2422 56.0156 50.3906C56.0391 42.4688 51.2812 37.2188 43.8281 37.2188C36.3984 37.2188 31.6406 42.4688 31.6406 50.3906C31.6406 58.2422 36.3984 63.5156 43.8281 63.5156ZM37.6875 50.3438C37.6875 45.6797 39.7266 41.9297 43.875 41.9531C47.9531 41.9297 49.9922 45.6797 49.9688 50.3438C49.9922 55.0078 47.9531 58.7344 43.875 58.7344C39.7266 58.7344 37.6875 55.0078 37.6875 50.3438ZM60.6562 63H66.6562V47.5312C66.6562 44.3672 68.7656 42.2344 71.3438 42.2344C73.8984 42.2344 75.6328 43.9453 75.6562 46.5938V63H81.4688V47.1094C81.4688 44.2266 83.1797 42.2344 86.1094 42.2344C88.5469 42.2344 90.4688 43.6641 90.4688 46.8281V63H96.4219V45.8906C96.4453 40.2188 93.1641 37.2188 88.5 37.2188C84.7969 37.2188 81.9609 39.0469 80.8594 41.8594H80.5781C79.6172 38.9766 77.1328 37.2188 73.6875 37.2188C70.3125 37.2188 67.7578 38.9531 66.7031 41.8594H66.375V37.5469H60.6562V63ZM113.438 63.5156C119.344 63.5156 123.422 60.6094 124.5 56.2031H118.641C117.867 57.7266 116.109 58.8516 113.484 58.8281C109.617 58.8516 107.062 56.2734 106.969 51.9375H124.734V50.0625C124.734 41.1328 119.344 37.2188 113.109 37.2188C105.844 37.2188 101.062 42.5625 101.062 50.4375C101.062 58.4062 105.773 63.5156 113.438 63.5156ZM106.992 47.8594C107.203 44.625 109.617 41.8594 113.203 41.8594C116.648 41.8594 118.992 44.3906 119.016 47.8594H106.992ZM129.375 63H135.375V37.5469H129.375V63ZM128.953 30.6562C128.953 32.4609 130.523 33.9141 132.422 33.9375C134.32 33.9141 135.891 32.4609 135.891 30.6562C135.891 28.875 134.32 27.4219 132.422 27.4219C130.523 27.4219 128.953 28.875 128.953 30.6562Z" fill="white"/>
<path fill-rule="evenodd" clip-rule="evenodd" d="M164 36C166.761 36 169 33.7614 169 31C169 28.2386 166.761 26 164 26C161.239 26 159 28.2386 159 31C159 33.7614 161.239 36 164 36ZM169 61C169 63.7614 166.761 66 164 66C161.239 66 159 63.7614 159 61V43.5C159 41.7097 159.957 40.056 161.51 39.1643C163.062 38.2726 164.973 38.279 166.519 39.1811L189 52.2948V31C189 28.2386 191.239 26 194 26C196.761 26 199 28.2386 199 31V61C199 62.7903 198.043 64.444 196.49 65.3357C194.938 66.2274 193.027 66.221 191.481 65.3189L169 52.2052V61Z" fill="url(#paint0_linear_372_382)"/>
</g>
<defs>
<linearGradient id="paint0_linear_372_382" x1="179" y1="26" x2="179" y2="66" gradientUnits="userSpaceOnUse">
<stop stop-color="#0084DB"/>
<stop offset="1" stop-color="#3FCCFF"/>
</linearGradient>
<clipPath id="clip0_372_382">
<rect width="199" height="92" fill="white"/>
</clipPath>
</defs>
</svg>
