<svg width="48" height="48" viewBox="0 0 48 48" fill="none" xmlns="http://www.w3.org/2000/svg">
<path fill-rule="evenodd" clip-rule="evenodd" d="M23.9998 4C23.3291 4 22.7855 4.54365 22.7855 5.21428V6.4129C16.6494 7.02217 11.857 12.1993 11.857 18.4958V30.2354C11.857 31.34 10.9616 32.2354 9.85699 32.2354H9C7.89543 32.2354 7 33.1309 7 34.2354V34.9413C7 36.0459 7.89543 36.9413 9 36.9413H39C40.1046 36.9413 41 36.0459 41 34.9413V34.2354C41 33.1309 40.1046 32.2354 39 32.2354H38.1427C37.0381 32.2354 36.1427 31.34 36.1427 30.2354V18.4958C36.1427 12.1993 31.3503 7.02209 25.2141 6.41289V5.21429C25.2141 4.54365 24.6704 4 23.9998 4ZM28.8573 39.2942C28.8573 40.5423 28.3456 41.7393 27.4347 42.6218C26.5238 43.5043 25.2883 44.0001 24.0001 44.0001C22.712 44.0001 21.4765 43.5043 20.5656 42.6218C19.6547 41.7393 19.143 40.5423 19.143 39.2942L24.0001 39.2942H28.8573Z" fill="#7A8184"/>
</svg>
